#!OML:ASF H:\ManfredETheater\Project 1\Capture day 1\Session 1\subject.ASF
:FULLY-SPECIFIED
:DEGREES
771
root 3.98233 17.9802 -4.73539 -6.24717 12.6125 1.30232
lowerback 10.0967 -2.863 -8.25688
upperback 0.00441004 -4.66257 2.159
thorax -4.82115 -2.08725 7.57544
lowerneck -14.909 -2.67247 -2.35018
upperneck 23.9327 -3.39739 0.902652
head 10.1464 -1.67561 0.270081
rclavicle 1.51573e-015 2.50469e-014
rhumerus -47.801 -7.7984 -36.8023
rradius 48.3539
rwrist -1.49592
rhand -4.65225 -11.655
rfingers 7.12502
rthumb 21.1275 -40.5239
lclavicle 1.51573e-015 2.50469e-014
lhumerus -36.1811 12.0282 69.9159
lradius 54.071
lwrist -7.12865
lhand -22.2141 3.23272
lfingers 7.12502
lthumb 4.20206 33.171
rfemur -76.1609 -17.1268 13.6685
rtibia 91.5798
rfoot -1.63387 -9.06184
rtoes 19.1226
lfemur -0.0296841 -1.92983 -28.2761
ltibia 27.6928
lfoot -15.0215 -2.05252
ltoes 13.576
772
root 3.97134 17.9885 -4.73178 -6.25114 12.7235 1.30431
lowerback 10.0878 -2.86888 -8.25867
upperback -0.000826464 -4.66981 2.16372
thorax -4.81981 -2.09067 7.58187
lowerneck -14.9143 -2.68815 -2.37541
upperneck 23.9454 -3.41498 0.911223
head 10.153 -1.68483 0.274876
rclavicle 4.87271e-014 9.93923e-015
rhumerus -47.8326 -7.82416 -36.8305
rradius 48.3028
rwrist -1.44988
rhand -4.37098 -11.9037
rfingers 7.12502
rthumb 21.3977 -40.7422
lclavicle 4.87271e-014 9.93923e-015
lhumerus -36.2212 11.9934 69.9854
lradius 54.0816
lwrist -7.15149
lhand -22.1942 3.21225
lfingers 7.12502
lthumb 4.2212 33.1502
rfemur -75.9264 -16.9836 12.8522
rtibia 91.6378
rfoot 0.184394 -7.47901
rtoes 18.3559
lfemur 0.0711226 -1.90085 -28.2112
ltibia 27.5089
lfoot -14.9188 -2.2056
ltoes 13.4503
773
root 3.95996 17.9962 -4.72807 -6.25179 12.8245 1.30257
lowerback 10.0741 -2.87277 -8.25879
upperback -0.00629005 -4.67382 2.16877
thorax -4.81677 -2.09261 7.58698
lowerneck -14.9228 -2.70235 -2.39842
upperneck 23.952 -3.43121 0.921065
head 10.158 -1.69308 0.279912
rclavicle -4.26766e-014 -8.74653e-015
rhumerus -47.8534 -7.84498 -36.8599
rradius 48.2568
rwrist -1.40208
rhand -4.10344 -12.1563
rfingers 7.12502
rthumb 21.6546 -40.9653
lclavicle -4.26766e-014 -8.74653e-015
lhumerus -36.2654 11.9665 70.0489
lradius 54.0883
lwrist -7.18108
lhand -22.1722 3.1902
lfingers 7.12502
lthumb 4.24253 33.1277
rfemur -75.6984 -16.8553 12.0919
rtibia 91.7594
rfoot 2.2771 -5.80427
rtoes 17.8626
lfemur 0.156285 -1.87701 -28.1438
ltibia 27.3478
lfoot -14.8267 -2.34029
ltoes 13.3499
774
root 3.94818 18.0034 -4.72433 -6.24783 12.9159 1.29769
lowerback 10.0551 -2.875 -8.25805
upperback -0.0126107 -4.67511 2.17383
thorax -4.81221 -2.09329 7.59092
lowerneck -14.9329 -2.71497 -2.41955
upperneck 23.9523 -3.44618 0.93324
head 10.161 -1.7003 0.285631
rclavicle -6.33999e-014 2.0276e-014
rhumerus -47.8623 -7.86267 -36.8908
rradius 48.2132
rwrist -1.35263
rhand -3.85498 -12.4021
rfingers 7.12502
rthumb 21.8932 -41.1834
lclavicle -6.33999e-014 2.0276e-014
lhumerus -36.3138 11.948 70.1052
lradius 54.0911
lwrist -7.21538
lhand -22.1464 3.16936
lfingers 7.12502
lthumb 4.26744 33.1064
rfemur -75.4813 -16.7507 11.4078
rtibia 91.9502
rfoot 4.57842 -4.23059
rtoes 17.8733
lfemur 0.224909 -1.85738 -28.0737
ltibia 27.2078
lfoot -14.7446 -2.46013
ltoes 13.2725
775
root 3.93598 18.0101 -4.72065 -6.23812 12.9989 1.29113
lowerback 10.0305 -2.87603 -8.25778
upperback -0.0203791 -4.67448 2.17823
thorax -4.80645 -2.09303 7.59382
lowerneck -14.9431 -2.72602 -2.43876
upperneck 23.9462 -3.46 0.947917
head 10.1617 -1.70654 0.29209
rclavicle 2.29348e-014 0
rhumerus -47.8594 -7.87794 -36.9241
rradius 48.171
rwrist -1.30312
rhand -3.62905 -12.6325
rfingers 7.12502
rthumb 22.1101 -41.3883
lclavicle 2.29348e-014 0
lhumerus -36.3665 11.9384 70.153
lradius 54.0893
lwrist -7.25238
lhand -22.1162 3.15126
lfingers 7.12502
lthumb 4.29657 33.0877
rfemur -75.2757 -16.678 10.8125
rtibia 92.2152
rfoot 7.00279 -2.90995
rtoes 18.4555
lfemur 0.277142 -1.84108 -28.0017
ltibia 27.0858
lfoot -14.6712 -2.56884
ltoes 13.2138
776
root 3.92336 18.0164 -4.71709 -6.22225 13.0753 1.28434
lowerback 10.001 -2.87629 -8.25903
upperback -0.0299551 -4.67274 2.18124
thorax -4.80003 -2.09218 7.59567
lowerneck -14.9522 -2.73572 -2.45644
upperneck 23.9342 -3.47299 0.965495
head 10.1601 -1.71194 0.299466
rclavicle -3.19174e-014 -1.19271e-015
rhumerus -47.8456 -7.89136 -36.9601
rradius 48.1306
rwrist -1.25585
rhand -3.42717 -12.8428
rfingers 7.12502
rthumb 22.3039 -41.5756
lclavicle -3.19174e-014 -1.19271e-015
lhumerus -36.423 11.9382 70.1916
lradius 54.0816
lwrist -7.29072
lhand -22.0813 3.13661
lfingers 7.12502
lthumb 4.33031 33.0723
rfemur -75.0786 -16.644 10.3115
rtibia 92.5581
rfoot 9.44538 -1.93666
rtoes 19.5302
lfemur 0.314264 -1.82696 -27.9287
ltibia 26.9785
lfoot -14.6059 -2.6702
ltoes 13.169
777
root 3.91032 18.0223 -4.71371 -6.20008 13.1472 1.27934
lowerback 9.96785 -2.87625 -8.26323
upperback -0.0417309 -4.67082 2.18202
thorax -4.79393 -2.0911 7.5966
lowerneck -14.9608 -2.74428 -2.47266
upperneck 23.9176 -3.48536 0.985593
head 10.1568 -1.71663 0.3076
rclavicle -3.7707e-014 1.03368e-014
rhumerus -47.8233 -7.90239 -36.9994
rradius 48.0944
rwrist -1.21402
rhand -3.24908 -13.0321
rfingers 7.12502
rthumb 22.4749 -41.7443
lclavicle -3.7707e-014 1.03368e-014
lhumerus -36.4832 11.9472 70.2205
lradius 54.0676
lwrist -7.32923
lhand -22.0417 3.12542
lfingers 7.12502
lthumb 4.36854 33.0604
rfemur -74.8839 -16.6539 9.90359
rtibia 92.9805
rfoot 11.7898 -1.34077
rtoes 20.9158
lfemur 0.338026 -1.81355 -27.8563
ltibia 26.8826
lfoot -14.5474 -2.76777
ltoes 13.1335
778
root 3.89684 18.0278 -4.71054 -6.17151 13.2174 1.27907
lowerback 9.93274 -2.87633 -8.27266
upperback -0.0559641 -4.66977 2.17957
thorax -4.78905 -2.09019 7.59709
lowerneck -14.9694 -2.75198 -2.48766
upperneck 23.8981 -3.49727 1.00747
head 10.1524 -1.72081 0.316225
rclavicle -4.01048e-014 1.15295e-014
rhumerus -47.7945 -7.91029 -37.0424
rradius 48.0651
rwrist -1.1806
rhand -3.09373 -13.2007
rfingers 7.12502
rthumb 22.624 -41.8948
lclavicle -4.01048e-014 1.15295e-014
lhumerus -36.5469 11.9649 70.2398
lradius 54.0465
lwrist -7.36755
lhand -21.9982 3.11728
lfingers 7.12502
lthumb 4.41048 33.0514
rfemur -74.6841 -16.7115 9.5821
rtibia 93.481
rfoot 13.9262 -1.09784
rtoes 22.412
lfemur 0.350361 -1.79899 -27.7873
ltibia 26.795
lfoot -14.4949 -2.865
ltoes 13.1035
779
root 3.88294 18.0328 -4.70757 -6.13655 13.2885 1.28633
lowerback 9.89694 -2.87698 -8.28946
upperback -0.0725316 -4.67057 2.17302
thorax -4.7857 -2.08989 7.59763
lowerneck -14.9796 -2.75906 -2.50185
upperneck 23.8775 -3.50879 1.03069
head 10.1479 -1.72458 0.325218
rclavicle -8.21478e-014 -1.23246e-014
rhumerus -47.7609 -7.915 -37.0895
rradius 48.0455
rwrist -1.1578
rhand -2.95831 -13.3502
rfingers 7.12502
rthumb 22.754 -42.0284
lclavicle -8.21478e-014 -1.23246e-014
lhumerus -36.6139 11.9899 70.2502
lradius 54.019
lwrist -7.40529
lhand -21.9521 3.1114
lfingers 7.12502
lthumb 4.45501 33.0446
rfemur -74.4708 -16.8188 9.33767
rtibia 94.0547
rfoot 15.7665 -1.14451
rtoes 23.8492
lfemur 0.353071 -1.78114 -27.7243
ltibia 26.7136
lfoot -14.4475 -2.96478
ltoes 13.0759
780
root 3.86862 18.0374 -4.70482 -6.09476 13.362 1.30425
lowerback 9.86133 -2.87846 -8.316
upperback -0.0914689 -4.67392 2.16143
thorax -4.78418 -2.09048 7.5987
lowerneck -14.992 -2.76567 -2.51573
upperneck 23.8565 -3.51995 1.055
head 10.1437 -1.72801 0.334559
rclavicle -4.99943e-014 -8.34896e-015
rhumerus -47.724 -7.91642 -37.1406
rradius 48.0377
rwrist -1.14706
rhand -2.83991 -13.4808
rfingers 7.12502
rthumb 22.8676 -42.145
lclavicle -4.99943e-014 -8.34896e-015
lhumerus -36.684 12.0202 70.2526
lradius 53.9859
lwrist -7.44287
lhand -21.9046 3.10763
lfingers 7.12502
lthumb 4.50087 33.0398
rfemur -74.2363 -16.9756 9.1593
rtibia 94.6935
rfoot 17.2562 -1.39867
rtoes 25.1206
lfemur 0.347094 -1.75746 -27.6704
ltibia 26.6368
lfoot -14.4044 -3.06953
ltoes 13.0492
781
root 3.85388 18.0414 -4.70226 -6.04537 13.4389 1.33521
lowerback 9.82551 -2.88081 -8.35398
upperback -0.112637 -4.68011 2.14418
thorax -4.78399 -2.09208 7.60059
lowerneck -15.0068 -2.77199 -2.5299
upperneck 23.8356 -3.53082 1.08031
head 10.14 -1.7312 0.344304
rclavicle -3.78436e-014 1.27222e-014
rhumerus -47.6843 -7.91526 -37.1956
rradius 48.0426
rwrist -1.14883
rhand -2.73549 -13.5922
rfingers 7.12502
rthumb 22.9678 -42.2439
lclavicle -3.78436e-014 1.27222e-014
lhumerus -36.7567 12.0538 70.2483
lradius 53.9483
lwrist -7.48078
lhand -21.857 3.10572
lfingers 7.12502
lthumb 4.54688 33.0369
rfemur -73.9742 -17.1795 9.03633
rtibia 95.3858
rfoot 18.3786 -1.77722
rtoes 26.1834
lfemur 0.332348 -1.72547 -27.6278
ltibia 26.5641
lfoot -14.3654 -3.18098
ltoes 13.0231
782
root 3.83873 18.0448 -4.69988 -5.98718 13.5189 1.38161
lowerback 9.78874 -2.88381 -8.40489
upperback -0.136181 -4.68893 2.12059
thorax -4.78485 -2.09458 7.60332
lowerneck -15.0233 -2.77826 -2.54519
upperneck 23.8142 -3.54163 1.10703
head 10.1365 -1.7343 0.35471
rclavicle 5.02925e-014 -7.55382e-015
rhumerus -47.6426 -7.91216 -37.2541
rradius 48.0605
rwrist -1.16301
rhand -2.64135 -13.6827
rfingers 7.12502
rthumb 23.0581 -42.3232
lclavicle 5.02925e-014 -7.55382e-015
lhumerus -36.8308 12.0884 70.2389
lradius 53.907
lwrist -7.51993
lhand -21.81 3.10515
lfingers 7.12502
lthumb 4.59225 33.0354
rfemur -73.6789 -17.4261 8.95815
rtibia 96.1175
rfoot 19.1503 -2.21145
rtoes 27.0487
lfemur 0.307701 -1.68305 -27.599
ltibia 26.4964
lfoot -14.3308 -3.29995
ltoes 12.9967
